<?xml version="1.0" encoding="UTF-8" standalone="no"?>
<svg xmlns="http://www.w3.org/2000/svg" viewBox="0 -0.5 16 16" shape-rendering="crispEdges">
<metadata>Made with Pixels to Svg https://codepen.io/shshaw/pen/XbxvNj</metadata>
<path stroke="#c3c1c7" d="M0 0h1M15 0h1M15 15h1" />
<path stroke="#ffffff" d="M1 0h3M10 0h2M0 1h1M0 4h1M7 5h1M12 5h1M12 6h1M15 7h1M0 8h1M13 8h1M0 10h1M0 11h1M11 11h1M15 11h1M0 13h1M2 15h2M6 15h2M12 15h1" />
<path stroke="#fefffe" d="M4 0h1M13 0h1M15 3h1M15 8h1" />
<path stroke="#fffeff" d="M5 0h1M12 0h1M0 3h1M9 6h1M11 9h1M15 9h1M15 10h1M15 14h1M5 15h1M11 15h1" />
<path stroke="#feffff" d="M6 0h1M8 0h1M15 4h1M15 5h1M0 7h1M11 10h1M0 12h1M15 13h1M0 14h1M13 15h2" />
<path stroke="#fffffe" d="M7 0h1M9 0h1M15 2h1M0 5h1M0 6h1M15 6h1M12 8h1M0 9h1M1 15h1M4 15h1M8 15h3" />
<path stroke="#fefeff" d="M14 0h1M8 6h1M15 12h1" />
<path stroke="#000000" d="M1 1h2M5 1h2M10 1h3M14 1h1M1 2h1M3 2h1M10 2h1M1 3h1M3 4h1M10 6h1M14 6h1M4 7h1M14 8h1M13 10h1M1 11h2M12 11h2M1 12h1M1 13h1M5 13h2M8 13h4" />
<path stroke="#010000" d="M3 1h1M4 2h1M6 2h2M4 5h2M14 11h1M7 13h1" />
<path stroke="#000101" d="M4 1h1M7 1h1M9 1h1M2 6h1" />
<path stroke="#010100" d="M8 1h1M8 2h1M3 5h1M14 7h1M14 9h1M4 12h1" />
<path stroke="#000001" d="M13 1h1M5 2h1M1 4h1M12 4h1M8 5h2M1 6h1M5 7h1M13 9h1M14 10h1M12 12h2M12 13h1M1 14h1" />
<path stroke="#fffefe" d="M15 1h1M0 2h1M11 4h1" />
<path stroke="#56457d" d="M2 2h1M2 3h1M6 14h1" />
<path stroke="#010001" d="M9 2h1" />
<path stroke="#57447d" d="M11 2h1M13 2h1M12 3h1M2 4h1M2 12h1M2 13h3M2 14h1M4 14h2M7 14h1M9 14h6" />
<path stroke="#57447c" d="M12 2h1M14 2h1M2 5h1" />
<path stroke="#000100" d="M3 3h1M11 3h1M1 5h1M13 5h1M12 10h1M3 12h1M13 13h1" />
<path stroke="#90022f" d="M4 3h1M4 4h1M10 5h1M10 7h2M1 10h1M10 10h1M3 11h3M5 12h2M10 12h1" />
<path stroke="#ff1101" d="M5 3h1M7 3h2M8 4h3M11 5h1M5 6h2M11 6h1M9 8h1M10 9h1M3 10h2M6 11h2" />
<path stroke="#ff7301" d="M6 3h1M6 4h1M3 6h2M6 7h2M1 8h1M4 8h2M1 9h1M3 9h1M5 9h1M8 9h1M8 11h1" />
<path stroke="#ff1000" d="M9 3h1" />
<path stroke="#a8a8e1" d="M10 3h1M13 6h1M12 7h1M11 8h1M12 9h1M11 12h1" />
<path stroke="#57457c" d="M13 3h1M14 5h1M14 13h1M8 14h1" />
<path stroke="#56457c" d="M14 3h1" />
<path stroke="#90022e" d="M5 4h1M8 7h1" />
<path stroke="#ff1100" d="M7 4h1" />
<path stroke="#57457d" d="M13 4h1" />
<path stroke="#56447c" d="M14 4h1" />
<path stroke="#90032f" d="M6 5h1M9 7h1M10 11h1M7 12h1" />
<path stroke="#90032e" d="M7 6h1" />
<path stroke="#91022f" d="M1 7h1M8 12h1" />
<path stroke="#ff7300" d="M2 7h1M9 10h1" />
<path stroke="#fe7300" d="M3 7h1M7 8h2" />
<path stroke="#a8a9e0" d="M13 7h1" />
<path stroke="#fe7301" d="M2 8h2M6 9h1M6 10h1M8 10h1" />
<path stroke="#fe7201" d="M6 8h1" />
<path stroke="#ff1001" d="M10 8h1" />
<path stroke="#ff7200" d="M2 9h1M4 9h1M5 10h1" />
<path stroke="#ff7201" d="M7 9h1M9 9h1M7 10h1M9 11h1" />
<path stroke="#91022e" d="M2 10h1" />
<path stroke="#fe1101" d="M9 12h1" />
<path stroke="#010101" d="M14 12h1" />
<path stroke="#56447d" d="M3 14h1" />
<path stroke="#c3c0c6" d="M0 15h1" />
</svg>
